<?xml version="1.0" encoding="utf-8"?>
<!-- Generator: Adobe Illustrator 22.1.0, SVG Export Plug-In . SVG Version: 6.00 Build 0)  -->
<svg version="1.1" id="Layer_1" xmlns="http://www.w3.org/2000/svg" xmlns:xlink="http://www.w3.org/1999/xlink" x="0px" y="0px"
	 viewBox="0 0 211.1 65.5" style="enable-background:new 0 0 211.1 65.5;" xml:space="preserve">
<style type="text/css">
	.st0{fill:none;}
	.st1{fill:#FFFFFF;}
</style>
<title>altman-estates-logo</title>
<path class="st0" d="M98.8,25.6l1.4,0.6c1.5,0.7,3.2,1.2,4.8,1.7c1.6,0.4,3.3,0.7,5,0.9c0.9,0.1,1.8,0.1,2.7,0.1l-7.2-20L98.8,25.6z
	"/>
<path class="st1" d="M130.3,22.6c-0.4,0.4-0.9,0.8-1.3,1.2c-1.6,1.3-3.5,2.4-5.5,3.1c-0.6,0.2-1.2,0.5-1.9,0.6s-1.4,0.4-2.1,0.5
	s-1.3,0.3-2,0.4l0.9,2.5c0.6-0.2,1.2-0.3,1.8-0.5c0.8-0.3,1.5-0.5,2.2-0.8s1.4-0.7,2-1c2-1.1,3.7-2.5,5.1-4.3c0.4-0.5,0.7-1,1-1.6
	l0.3-0.6L130.3,22.6z"/>
<path class="st1" d="M112.8,28.8c-0.9,0-1.8,0-2.7-0.1c-1.7-0.2-3.4-0.4-5-0.9c-1.6-0.4-3.3-1-4.8-1.7l-1.4-0.6
	c-0.8-0.3-1.5-0.7-2.3-1l-1.1-0.4c-1.6-0.6-3.3-1-5.1-1.1c-1.6-0.1-3.2,0.1-4.7,0.7c-1.3,0.5-2.4,1.3-3.2,2.4
	c-0.6,0.8-1.1,1.7-1.3,2.7c-0.1,0.6-0.1,1.3,0,1.9c0,0.2,0.1,0.4,0.2,0.6c0-0.2,0-0.4,0-0.7c0.1-0.6,0.2-1.1,0.4-1.7
	c0.4-0.8,0.9-1.5,1.6-2.1c0.8-0.7,1.8-1.2,2.9-1.5c1.3-0.2,2.6-0.2,3.9,0c1.5,0.3,2.9,0.7,4.3,1.4l1.1,0.5l2.2,1.1
	c0.4,0.2,0.8,0.4,1.3,0.6c1.7,0.8,3.5,1.4,5.3,1.9c1.8,0.5,3.7,0.8,5.6,0.9c1.3,0.1,2.6,0,3.9-0.1L112.8,28.8z"/>
<path class="st1" d="M94.4,36.7l3.3-8.3l-2.2-1.1l-4,10.1c-0.3,0.7-0.5,1.3-0.8,1.8c-0.2,0.5-0.5,1-0.8,1.4
	c-0.3,0.4-0.7,0.8-1.2,1.1c-0.6,0.4-1.2,0.6-1.9,0.8v1.1h9.8v-1.1c-0.7-0.2-1.3-0.6-1.9-1C94.2,41.1,94,40.6,94,40
	c0-0.3,0-0.8,0.1-1.5C94,37.9,94.2,37.3,94.4,36.7z"/>
<path class="st1" d="M123.7,41.6c-0.5-0.3-0.9-0.6-1.3-1c-0.4-0.4-0.7-0.9-1-1.4c-0.3-0.6-0.6-1.2-0.8-1.9l-2.3-6.4l-0.9-2.5
	L107.3,0h-1l-9.8,24.6c0.8,0.3,1.6,0.6,2.3,1l6.7-16.8l7.2,20l1,2.9l2.2,6c0.2,0.5,0.3,0.9,0.5,1.3c0.1,0.4,0.2,0.9,0.2,1.3
	c0,0.4-0.2,0.7-0.8,1.1c-0.5,0.4-1,0.7-1.4,1v1.1h11v-1.1C124.9,42.2,124.3,42,123.7,41.6z"/>
<path class="st1" d="M5.6,54.5h1.6l5.6,10.8h-1.5l-1.4-2.8h-7l-1.4,2.8H0L5.6,54.5z M9.3,61.3l-2.9-5.8l-2.9,5.8H9.3z"/>
<path class="st1" d="M18.1,54.5h1.3v9.6h8.5v1.2h-9.8V54.5z"/>
<path class="st1" d="M34.5,55.6h-5.2v-1.2H41v1.2h-5.2v9.6h-1.3V55.6z"/>
<path class="st1" d="M46.5,54.5h2l4,9.1l4-9.1h2v10.8h-1.2v-9.6l0,0l-4.2,9.6H52l-4.2-9.6l0,0v9.6h-1.3V54.5z"/>
<path class="st1" d="M69.5,54.5h1.6l5.5,10.8h-1.5l-1.4-2.8h-7l-1.4,2.8h-1.5L69.5,54.5z M73.2,61.3l-2.9-5.8l-2.9,5.8H73.2z"/>
<path class="st1" d="M82,54.5h1.9l8,8.9v-8.9h1.3v10.8h-1.3l-8.7-9.6v9.6H82V54.5z"/>
<path class="st1" d="M108.8,54.5h9.6v1.2h-8.3v3.4h7v1.2h-7v3.9h8.5v1.2h-9.8V54.5z"/>
<path class="st1" d="M124.2,62.2c0.6,0.8,1.7,2.2,4.9,2.2c1.7,0,3.9-0.5,3.9-2.2c0-3.3-9.4-0.4-9.4-4.8c0-2.3,2.1-3.2,5.1-3.2
	c2.9,0,4.6,1.2,5.4,2.2l-1,0.8c-1.1-1.3-2.7-2-4.4-1.8c-2.2,0-3.7,0.6-3.7,1.9c0,3.3,9.4,0.2,9.4,5c0,1.8-1.8,3.3-5.4,3.3
	c-2.2,0.2-4.4-0.8-5.8-2.5L124.2,62.2z"/>
<path class="st1" d="M144.3,55.6h-5.2v-1.2h11.7v1.2h-5.2v9.6h-1.3V55.6z"/>
<path class="st1" d="M158.8,54.5h1.6l5.6,10.8h-1.5l-1.4-2.8h-7l-1.4,2.8h-1.5L158.8,54.5z M162.5,61.3l-2.9-5.8l-2.9,5.8
	L162.5,61.3z"/>
<path class="st1" d="M173.6,55.6h-5.2v-1.2h11.7v1.2h-5.2v9.6h-1.3V55.6z"/>
<path class="st1" d="M185.5,54.5h9.6v1.2h-8.3v3.4h6.9v1.2h-6.9v3.9h8.5v1.2h-9.8L185.5,54.5z"/>
<path class="st1" d="M200.9,62.2c0.6,0.8,1.7,2.2,4.9,2.2c1.7,0,3.9-0.5,3.9-2.2c0-3.3-9.4-0.4-9.4-4.8c0-2.3,2.1-3.2,5.1-3.2
	s4.6,1.1,5.4,2.2l-0.9,0.8c-1.1-1.3-2.7-2-4.4-1.8c-2.2,0-3.7,0.6-3.7,1.9c0,3.3,9.4,0.2,9.4,5c0,1.8-1.8,3.3-5.4,3.3
	c-2.2,0.2-4.4-0.8-5.8-2.5L200.9,62.2z"/>
</svg>
